<svg xmlns="http://www.w3.org/2000/svg" xmlns:xlink="http://www.w3.org/1999/xlink" viewBox="0 0 756 338"><defs><style>.cls-1{fill:url(#radial-gradient);}.cls-2{isolation:isolate;}.cls-3{clip-path:url(#clip-path);}.cls-4{mix-blend-mode:screen;fill:url(#radial-gradient-3);}.cls-10,.cls-11,.cls-12,.cls-13,.cls-14,.cls-15,.cls-16,.cls-17,.cls-18,.cls-19,.cls-20,.cls-5,.cls-6,.cls-7,.cls-8,.cls-9{mix-blend-mode:color-dodge;}.cls-5{fill:url(#radial-gradient-4);}.cls-6{fill:url(#radial-gradient-5);}.cls-7{fill:url(#radial-gradient-6);}.cls-8{fill:url(#radial-gradient-7);}.cls-9{fill:url(#radial-gradient-8);}.cls-10{fill:url(#radial-gradient-9);}.cls-11{fill:url(#radial-gradient-10);}.cls-12{fill:url(#radial-gradient-11);}.cls-13{fill:url(#radial-gradient-12);}.cls-14{fill:url(#radial-gradient-13);}.cls-15{fill:url(#radial-gradient-14);}.cls-16{fill:url(#radial-gradient-15);}.cls-17{fill:url(#radial-gradient-16);}.cls-18{fill:url(#radial-gradient-17);}.cls-19{fill:url(#radial-gradient-18);}.cls-20{fill:url(#radial-gradient-19);}.cls-21{mix-blend-mode:overlay;}.cls-22{fill:#fff;}</style><radialGradient id="radial-gradient" cx="504.13" cy="-98.1" r="675.63" gradientUnits="userSpaceOnUse"><stop offset="0" stop-color="#00b7fa"/><stop offset="0.03" stop-color="#00a1e3"/><stop offset="0.11" stop-color="#0073b4"/><stop offset="0.18" stop-color="#004e8d"/><stop offset="0.26" stop-color="#00316f"/><stop offset="0.33" stop-color="#001c59"/><stop offset="0.4" stop-color="#000f4c"/><stop offset="0.46" stop-color="#000b48"/><stop offset="1"/></radialGradient><clipPath id="clip-path" transform="translate(8.03 30.79)"><rect class="cls-1" width="720" height="288"/></clipPath><radialGradient id="radial-gradient-3" cx="-712.01" cy="388.26" r="281.73" gradientTransform="translate(1406.28 -56.59) scale(1.99 0.96)" gradientUnits="userSpaceOnUse"><stop offset="0.1" stop-color="#a03d00"/><stop offset="0.2" stop-color="#762d00"/><stop offset="0.31" stop-color="#521f00"/><stop offset="0.42" stop-color="#341400"/><stop offset="0.54" stop-color="#1d0b00"/><stop offset="0.67" stop-color="#0d0500"/><stop offset="0.81" stop-color="#030100"/><stop offset="0.99"/></radialGradient><radialGradient id="radial-gradient-4" cx="-207.21" cy="303.46" r="127.69" gradientTransform="translate(191.15 -118.7) rotate(-6.53)" gradientUnits="userSpaceOnUse"><stop offset="0" stop-color="#fff"/><stop offset="0.01" stop-color="#f7f7f7"/><stop offset="0.09" stop-color="#c3c3c3"/><stop offset="0.17" stop-color="#959595"/><stop offset="0.26" stop-color="#6d6d6d"/><stop offset="0.35" stop-color="#4b4b4b"/><stop offset="0.44" stop-color="#303030"/><stop offset="0.55" stop-color="#1a1a1a"/><stop offset="0.66" stop-color="#0c0c0c"/><stop offset="0.79" stop-color="#030303"/><stop offset="1"/></radialGradient><radialGradient id="radial-gradient-5" cx="-412.05" cy="406.83" r="127.7" gradientTransform="matrix(2.22, -0.66, -0.27, 1.17, 1085.47, -518.03)" xlink:href="#radial-gradient-4"/><radialGradient id="radial-gradient-6" cx="-219.41" cy="290.16" r="183.66" xlink:href="#radial-gradient-4"/><radialGradient id="radial-gradient-7" cx="-410.33" cy="406.13" r="183.66" gradientTransform="matrix(2.22, -0.66, -0.27, 1.17, 1085.47, -518.03)" xlink:href="#radial-gradient-4"/><radialGradient id="radial-gradient-8" cx="-198.33" cy="307.13" r="171.59" xlink:href="#radial-gradient-4"/><radialGradient id="radial-gradient-9" cx="-399.68" cy="422.73" r="171.59" gradientTransform="matrix(2.22, -0.66, -0.27, 1.17, 1085.47, -518.03)" xlink:href="#radial-gradient-4"/><radialGradient id="radial-gradient-10" cx="-214.72" cy="289.26" r="246.79" xlink:href="#radial-gradient-4"/><radialGradient id="radial-gradient-11" cx="-397.38" cy="421.79" r="246.79" gradientTransform="matrix(2.22, -0.66, -0.27, 1.17, 1085.47, -518.03)" xlink:href="#radial-gradient-4"/><radialGradient id="radial-gradient-12" cx="445.63" cy="139.63" r="127.69" xlink:href="#radial-gradient-4"/><radialGradient id="radial-gradient-13" cx="-133.69" cy="361.38" r="127.7" gradientTransform="matrix(2.22, -0.66, -0.27, 1.17, 1085.47, -518.03)" xlink:href="#radial-gradient-4"/><radialGradient id="radial-gradient-14" cx="433.43" cy="126.34" r="183.66" xlink:href="#radial-gradient-4"/><radialGradient id="radial-gradient-15" cx="-131.97" cy="360.68" r="183.66" gradientTransform="matrix(2.22, -0.66, -0.27, 1.17, 1085.47, -518.03)" xlink:href="#radial-gradient-4"/><radialGradient id="radial-gradient-16" cx="454.51" cy="143.31" r="171.59" xlink:href="#radial-gradient-4"/><radialGradient id="radial-gradient-17" cx="-121.33" cy="377.28" r="171.59" gradientTransform="matrix(2.22, -0.66, -0.27, 1.17, 1085.47, -518.03)" xlink:href="#radial-gradient-4"/><radialGradient id="radial-gradient-18" cx="438.12" cy="125.44" r="246.79" xlink:href="#radial-gradient-4"/><radialGradient id="radial-gradient-19" cx="-119.02" cy="376.34" r="246.79" gradientTransform="matrix(2.22, -0.66, -0.27, 1.17, 1085.47, -518.03)" xlink:href="#radial-gradient-4"/></defs><g class="cls-2"><g id="Layer_1" data-name="Layer 1"><rect class="cls-1" x="8.03" y="30.79" width="720" height="288"/><g class="cls-3"><path class="cls-4" d="M551.77,307.21C541.22,162,295,45.9-7.14,45.9H-8V307.21Z" transform="translate(8.03 30.79)"/><polygon class="cls-5" points="56.5 338 189.1 278.76 146.65 183.74 0 249.26 0 338 56.5 338"/><polygon class="cls-6" points="147.15 338 390 229.51 347.55 134.49 0 289.75 0 338 147.15 338"/><polygon class="cls-7" points="161.63 338 249.67 298.67 188.62 162.01 0 246.27 0 338 161.63 338"/><polygon class="cls-8" points="292.02 338 538.61 227.84 477.56 91.18 0 304.52 0 338 292.02 338"/><polygon class="cls-9" points="185.56 338 256.54 306.29 199.5 178.61 0 267.73 0 338 185.56 338"/><polygon class="cls-10" points="307.38 338 526.5 240.11 469.46 112.43 0 322.15 0 338 307.38 338"/><polygon class="cls-11" points="326.84 338 337.93 333.05 255.89 149.41 0 263.72 0 338 326.84 338"/><polygon class="cls-12" points="502.04 338 726.2 237.86 644.16 54.23 8.94 338 502.04 338"/><polygon class="cls-13" points="756 0 657.43 0 529.69 57.07 572.13 152.09 756 69.95 756 0"/><polygon class="cls-14" points="756 0 748.09 0 383.11 163.04 425.56 258.06 756 110.45 756 0"/><polygon class="cls-15" points="756 0 650.75 0 463.43 83.68 524.48 220.34 756 116.92 756 0"/><polygon class="cls-16" points="391.49 338 756 175.16 756 11.23 252.62 236.1 298.14 338 391.49 338"/><polygon class="cls-17" points="756 0 698.79 0 497.65 89.86 554.69 217.54 756 127.61 756 0"/><polygon class="cls-18" points="406.85 338 756 182.03 756 28.86 300.69 232.26 347.93 338 406.85 338"/><polygon class="cls-19" points="756 0 689.82 0 408.62 125.62 490.66 309.26 756 190.72 756 0"/><polygon class="cls-20" points="601.52 338 756 268.99 756 48.7 125.34 330.43 128.73 338 601.52 338"/><g class="cls-21"><path class="cls-22" d="M748,86.11A311.53,311.53,0,0,1,545.64,160.5c-129.44,0-240.77-79-288.34-191.29h-1A312.9,312.9,0,0,0,323.76,69.42a311.69,311.69,0,0,0,221.88,91.83A311.41,311.41,0,0,0,748,87.38Z" transform="translate(8.03 30.79)"/><path class="cls-22" d="M748,70.05a299.66,299.66,0,0,1-202.33,78.4C423,148.45,317.27,74.69,270.46-30.79H269.4A300.78,300.78,0,0,0,332.29,60.9a299.71,299.71,0,0,0,213.35,88.3A299.55,299.55,0,0,0,748,71.39Z" transform="translate(8.03 30.79)"/><path class="cls-22" d="M748,53.47A287.84,287.84,0,0,1,545.64,136.4C429.81,136.4,329.7,67.86,283.7-30.79h-1.06a289.39,289.39,0,0,0,58.17,83.17,287.77,287.77,0,0,0,204.83,84.77A287.64,287.64,0,0,0,748,54.81Z" transform="translate(8.03 30.79)"/><path class="cls-22" d="M748,36.23a276.07,276.07,0,0,1-202.33,88.12c-109,0-203.48-63.34-248.59-155.14H296a277.68,277.68,0,0,0,53.34,74.64A275.76,275.76,0,0,0,545.64,125.1,275.76,275.76,0,0,0,742,43.85q3.07-3.08,6-6.23Z" transform="translate(8.03 30.79)"/><path class="cls-22" d="M748,18.09A264.27,264.27,0,0,1,545.64,112.3c-102.15,0-191-58.16-235.09-143.09h-1.07a265.82,265.82,0,0,0,48.38,66.12,263.76,263.76,0,0,0,187.78,77.72A263.76,263.76,0,0,0,733.42,35.33Q741.06,27.7,748,19.57Z" transform="translate(8.03 30.79)"/><path class="cls-22" d="M748-1.26C701.85,60.32,628.32,100.25,545.64,100.25c-95.26,0-178.37-53-221.42-131h-1.08a254,254,0,0,0,43.24,57.6A251.84,251.84,0,0,0,545.64,101,251.84,251.84,0,0,0,724.9,26.81,255.81,255.81,0,0,0,748,.33Z" transform="translate(8.03 30.79)"/><path class="cls-22" d="M748-22.34C705.1,44.11,630.43,88.2,545.64,88.2c-88.34,0-165.69-47.85-207.55-119H337A243.13,243.13,0,0,0,374.9,18.28,239.86,239.86,0,0,0,545.64,89,239.86,239.86,0,0,0,716.38,18.28,242.29,242.29,0,0,0,748-20.64Z" transform="translate(8.03 30.79)"/><path class="cls-22" d="M739.09-30.79C698.57,33.41,627,76.15,545.64,76.15S392.71,33.41,352.19-30.79h-1.11A231,231,0,0,0,383.43,9.76,227.88,227.88,0,0,0,545.64,76.9,227.88,227.88,0,0,0,707.85,9.76,231,231,0,0,0,740.2-30.79Z" transform="translate(8.03 30.79)"/><path class="cls-22" d="M724.69-30.79A216.51,216.51,0,0,1,545.64,64.09a216.51,216.51,0,0,1-179-94.88h-1.11A219.44,219.44,0,0,0,392,1.24a215.93,215.93,0,0,0,153.69,63.6A215.93,215.93,0,0,0,699.33,1.24a219.44,219.44,0,0,0,26.47-32Z" transform="translate(8.03 30.79)"/><path class="cls-22" d="M709.9-30.79A204.29,204.29,0,0,1,545.64,52,204.29,204.29,0,0,1,381.38-30.79h-1.14a208.72,208.72,0,0,0,20.23,23.5A203.92,203.92,0,0,0,545.64,52.79,203.92,203.92,0,0,0,690.81-7.29,208.72,208.72,0,0,0,711-30.79Z" transform="translate(8.03 30.79)"/><path class="cls-22" d="M694.63-30.79A192.16,192.16,0,0,1,545.64,40a192.16,192.16,0,0,1-149-70.78h-1.16a196.37,196.37,0,0,0,13.51,15A191.94,191.94,0,0,0,545.64,40.74,191.94,191.94,0,0,0,682.28-15.81a196.37,196.37,0,0,0,13.51-15Z" transform="translate(8.03 30.79)"/><path class="cls-22" d="M678.71-30.79A180,180,0,0,1,545.64,27.94,180,180,0,0,1,412.57-30.79h-1.2c2,2.19,4,4.35,6.15,6.45a180,180,0,0,0,128.12,53,180,180,0,0,0,128.12-53c2.11-2.1,4.16-4.26,6.15-6.45Z" transform="translate(8.03 30.79)"/><path class="cls-22" d="M661.87-30.79A167.77,167.77,0,0,1,545.64,15.89,167.77,167.77,0,0,1,429.41-30.79h-1.24A168,168,0,0,0,545.64,16.64,168,168,0,0,0,663.11-30.79Z" transform="translate(8.03 30.79)"/><path class="cls-22" d="M643.62-30.79a155.5,155.5,0,0,1-98,34.63,155.5,155.5,0,0,1-98-34.63h-1.39A155.87,155.87,0,0,0,545.64,4.59,155.89,155.89,0,0,0,645-30.79Z" transform="translate(8.03 30.79)"/><path class="cls-22" d="M623-30.79a143.37,143.37,0,0,1-77.4,22.58,143.37,143.37,0,0,1-77.4-22.58h-1.58a144,144,0,0,0,79,23.33,144,144,0,0,0,79-23.33Z" transform="translate(8.03 30.79)"/><path class="cls-22" d="M597.31-30.79a131.43,131.43,0,0,1-51.67,10.52A131.43,131.43,0,0,1,494-30.79H492.1a132.17,132.17,0,0,0,53.54,11.27,132.73,132.73,0,0,0,53.79-11.27Z" transform="translate(8.03 30.79)"/></g><g class="cls-21"><path class="cls-22" d="M450.93,307.21H452A314.14,314.14,0,0,0,161.64,112.84,311.84,311.84,0,0,0-8,162.5v1.19a311.15,311.15,0,0,1,169.67-50.1C292,113.59,403.93,193.67,450.93,307.21Z" transform="translate(8.03 30.79)"/><path class="cls-22" d="M437.85,307.21h1A302,302,0,0,0,161.64,124.89,299.68,299.68,0,0,0-8,177v1.2a299.23,299.23,0,0,1,169.67-52.53C285.18,125.64,391.56,200.49,437.85,307.21Z" transform="translate(8.03 30.79)"/><path class="cls-22" d="M424.67,307.21h1A290,290,0,0,0-8,191.71v1.21a287.34,287.34,0,0,1,169.67-55.23C278.39,137.69,379.17,207.31,424.67,307.21Z" transform="translate(8.03 30.79)"/><path class="cls-22" d="M411.37,307.21h1.06A277.92,277.92,0,0,0-8,206.77V208a275.42,275.42,0,0,1,169.67-58.25C271.57,149.74,366.72,214.15,411.37,307.21Z" transform="translate(8.03 30.79)"/><path class="cls-22" d="M397.93,307.21H399a265.81,265.81,0,0,0-407-85v1.23a263.55,263.55,0,0,1,169.67-61.68C264.72,161.79,354.22,221,397.93,307.21Z" transform="translate(8.03 30.79)"/><path class="cls-22" d="M384.34,307.21h1.08A253.72,253.72,0,0,0-8,238.18v1.25a251.75,251.75,0,0,1,169.67-65.59C257.85,173.84,341.66,227.89,384.34,307.21Z" transform="translate(8.03 30.79)"/><path class="cls-22" d="M370.56,307.21h1.09a242.57,242.57,0,0,0-39.27-51.4A241.58,241.58,0,0,0-8,254.76v1.29a239.92,239.92,0,0,1,169.67-70.16C250.94,185.89,329,234.79,370.56,307.21Z" transform="translate(8.03 30.79)"/><path class="cls-22" d="M161.64,198c82.35,0,154.66,43.77,194.9,109.26h1.1a230.85,230.85,0,0,0-33.79-42.88,229.54,229.54,0,0,0-324.42,0q-3.84,3.84-7.46,7.82v1.36A228.08,228.08,0,0,1,161.64,198Z" transform="translate(8.03 30.79)"/><path class="cls-22" d="M161.64,210c75.34,0,141.8,38.68,180.61,97.21h1.11a219.17,219.17,0,0,0-28-34.35A217.47,217.47,0,0,0,8,272.86,218.16,218.16,0,0,0-8,290.69v1.45A216.27,216.27,0,0,1,161.64,210Z" transform="translate(8.03 30.79)"/><path class="cls-22" d="M-4.33,307.21a204.31,204.31,0,0,1,331.94,0h1.12a207.32,207.32,0,0,0-21.92-25.83,205.43,205.43,0,0,0-290.34,0A206.39,206.39,0,0,0-5.44,307.21Z" transform="translate(8.03 30.79)"/><path class="cls-22" d="M10.78,307.21a192.21,192.21,0,0,1,301.73,0h1.14a195.51,195.51,0,0,0-15.37-17.31A193.35,193.35,0,0,0,25,289.9,195.33,195.33,0,0,0,9.66,307.21Z" transform="translate(8.03 30.79)"/><path class="cls-22" d="M26.48,307.21a180.12,180.12,0,0,1,270.32,0H298q-3.95-4.5-8.21-8.78a181.28,181.28,0,0,0-256.24,0q-4.28,4.27-8.21,8.78Z" transform="translate(8.03 30.79)"/><path class="cls-22" d="M43,307.21a168.05,168.05,0,0,1,237.24,0h1.23a3.07,3.07,0,0,1-.25-.26A169.24,169.24,0,0,0,42,307a3.07,3.07,0,0,1-.25.26Z" transform="translate(8.03 30.79)"/><path class="cls-22" d="M60.83,307.21a156,156,0,0,1,201.62,0h1.34a157.21,157.21,0,0,0-204.3,0Z" transform="translate(8.03 30.79)"/><path class="cls-22" d="M80.7,307.21a144,144,0,0,1,161.88,0h1.52a145.37,145.37,0,0,0-164.92,0Z" transform="translate(8.03 30.79)"/><path class="cls-22" d="M104.81,307.21a132.09,132.09,0,0,1,113.66,0h1.94a133.78,133.78,0,0,0-117.54,0Z" transform="translate(8.03 30.79)"/><path class="cls-22" d="M147.78,307.21a120.46,120.46,0,0,1,27.72,0H181a121.43,121.43,0,0,0-38.68,0Z" transform="translate(8.03 30.79)"/></g></g></g></g></svg>